# xmcd CD database file generated by OrangeCD 5.2
#
# Track frame offsets:
#	150
#	15287
#	33218
#	51453
#	68540
#	82872
#	102057
#	118906
#	134866
#	152699
#	167830
#	184689
#
# Disc length: 2829 seconds
#
# Revision: 0
# Processed by: cddbd v1.5.2PL0 Copyright (c) Steve Scherf et al.
# Submitted via: OrangeCD 5.2
#
DISCID=940b0b0c
DTITLE=Gary Allan - Tough All Over
DYEAR=1900
DGENRE=Country
TTITLE0=Tough all over
TTITLE1=Best I everr had
TTITLE2=I just got back from hell
TTITLE3=Ring ring
TTITLE4=Promise broken
TTITLE5=Nickajack Cave (Johnny Cash's Redemption)
TTITLE6=Life ain't always beautiful
TTITLE7=He can't quit her
TTITLE8=What kind of fool
TTITLE9=Puttin' memories away
TTITLE10=No damn good
TTITLE11=Putting my misery on display
EXTD=
EXTT0=
EXTT1=
EXTT2=
EXTT3=
EXTT4=
EXTT5=
EXTT6=
EXTT7=
EXTT8=
EXTT9=
EXTT10=
EXTT11=
PLAYORDER=
